<svg id="SvgjsSvg1001" width="288" height="288" xmlns="http://www.w3.org/2000/svg" version="1.1" xmlns:xlink="http://www.w3.org/1999/xlink" xmlns:svgjs="http://svgjs.com/svgjs"><defs id="SvgjsDefs1002"></defs><g id="SvgjsG1008"><svg xmlns="http://www.w3.org/2000/svg" fill="none" viewBox="0 0 20 20" width="288" height="288"><path stroke="#000000" stroke-linecap="round" stroke-linejoin="round" stroke-width="1.5" d="M15 5.96669C14.95 5.95836 14.8917 5.95836 14.8417 5.96669 13.6917 5.92502 12.775 4.98336 12.775 3.81669 12.775 2.62502 13.7334 1.66669 14.925 1.66669 16.1167 1.66669 17.075 2.63336 17.075 3.81669 17.0667 4.98336 16.15 5.92502 15 5.96669zM14.1417 12.0334C15.2834 12.225 16.5417 12.025 17.425 11.4334 18.6 10.65 18.6 9.3667 17.425 8.58337 16.5334 7.9917 15.2584 7.79169 14.1167 7.99169M4.97503 5.96669C5.02503 5.95836 5.08336 5.95836 5.13336 5.96669 6.28336 5.92502 7.20002 4.98336 7.20002 3.81669 7.20002 2.62502 6.24169 1.66669 5.05003 1.66669 3.85836 1.66669 2.90002 2.63336 2.90002 3.81669 2.90836 4.98336 3.82503 5.92502 4.97503 5.96669zM5.83334 12.0334C4.69168 12.225 3.43335 12.025 2.55001 11.4334 1.37501 10.65 1.37501 9.3667 2.55001 8.58337 3.44168 7.9917 4.71668 7.79169 5.85834 7.99169M9.99996 12.1917C9.94996 12.1833 9.89163 12.1833 9.84163 12.1917 8.69163 12.15 7.77496 11.2083 7.77496 10.0417 7.77496 8.85 8.7333 7.89166 9.92496 7.89166 11.1166 7.89166 12.075 8.85833 12.075 10.0417 12.0666 11.2083 11.15 12.1583 9.99996 12.1917zM7.57498 14.8167C6.39998 15.6 6.39998 16.8833 7.57498 17.6667 8.90831 18.5583 11.0916 18.5583 12.425 17.6667 13.6 16.8833 13.6 15.6 12.425 14.8167 11.1 13.9333 8.90831 13.9333 7.57498 14.8167z" class="colorStrokeF44848 svgStroke"></path></svg></g></svg>